<svg xmlns="http://www.w3.org/2000/svg" viewBox="0 0 127.14 96.36">
  <path d="M107.7,8.07A105.15,105.15,0,0,0,81.47,0a72.06,72.06,0,0,0-3.36,6.83A97.68,97.68,0,0,0,49,6.83,72.06,72.06,0,0,0,45.64,0,105.89,105.89,0,0,0,19.39,8.09C2.71,32.65-1.71,56.6.54,80.21h0A105.73,105.73,0,0,0,32.71,96.36,77.7,77.7,0,0,0,39.22,85.25,68.42,68.42,0,0,1,28.68,80.15c1.1-1.35,2.42-3,3.58-4.51A74.75,74.75,0,0,0,94.92,75.64c1.17,1.52,2.48,3.15,3.58,4.51a68.43,68.43,0,0,1-10.54,5.1,77.7,77.7,0,0,0,6.51,11.11,105.73,105.73,0,0,0,32.17-16.15h0C129.46,53.45,120.94,29.66,107.7,8.07ZM42.45,65.69C36.18,65.69,31,60,31,53s5.17-12.71,11.43-12.71S53.9,46,53.9,53,48.72,65.69,42.45,65.69Zm42.24,0C78.41,65.69,73.25,60,73.25,53s5.17-12.71,11.44-12.71S96.14,46,96.14,53,91,65.69,84.69,65.69Z" fill="#5865F2"/>
</svg>
